<?xml version="1.0" encoding="UTF-8" standalone="no"?>
<!-- Created with Inkscape (http://www.inkscape.org/) -->

<svg
   width="120mm"
   height="100mm"
   viewBox="0 0 120 100"
   version="1.1"
   id="svg243"
   inkscape:version="1.1 (ce6663b3b7, 2021-05-25)"
   sodipodi:docname="factory.svg"
   xmlns:inkscape="http://www.inkscape.org/namespaces/inkscape"
   xmlns:sodipodi="http://sodipodi.sourceforge.net/DTD/sodipodi-0.dtd"
   xmlns="http://www.w3.org/2000/svg"
   xmlns:svg="http://www.w3.org/2000/svg">
  <sodipodi:namedview
     id="namedview245"
     pagecolor="#ffffff"
     bordercolor="#666666"
     borderopacity="1.0"
     inkscape:pageshadow="2"
     inkscape:pageopacity="0.0"
     inkscape:pagecheckerboard="0"
     inkscape:document-units="mm"
     showgrid="false"
     inkscape:zoom="0.73228114"
     inkscape:cx="-53.258233"
     inkscape:cy="315.45261"
     inkscape:window-width="1848"
     inkscape:window-height="1016"
     inkscape:window-x="72"
     inkscape:window-y="27"
     inkscape:window-maximized="1"
     inkscape:current-layer="layer1"
     width="50mm" />
  <defs
     id="defs240" />
  <g
     inkscape:label="Layer 1"
     inkscape:groupmode="layer"
     id="layer1">
    <path
       style="fill:none;stroke:#000000;stroke-width:0.264583px;stroke-linecap:butt;stroke-linejoin:miter;stroke-opacity:1"
       d="M 11.450701,95.885051 V 51.96196 H 35.249892 V 18.545401 h 6.352762 V 52.12407 h 5.511139 V 19.047728 h 5.580078 v 32.543795 h 16.54687 V 18.740628 h 5.7722 v 32.730815 h 6.292835 V 19.966942 h 5.16927 V 51.291856 H 108.9418 v 45.879209 z"
       id="path282" />
    <path
       style="fill:none;stroke:#000000;stroke-width:0.264583px;stroke-linecap:butt;stroke-linejoin:miter;stroke-opacity:1"
       d="m 17.319094,68.992878 v -9.271436 h 9.852662 v 9.561597 z"
       id="path423" />
    <path
       style="fill:none;stroke:#000000;stroke-width:0.264583px;stroke-linecap:butt;stroke-linejoin:miter;stroke-opacity:1"
       d="m 42.363345,68.992878 v -9.271436 h 9.852662 v 9.561597 z"
       id="path423-6" />
    <path
       style="fill:none;stroke:#000000;stroke-width:0.264583px;stroke-linecap:butt;stroke-linejoin:miter;stroke-opacity:1"
       d="m 67.407594,68.992878 v -9.271436 h 9.852662 v 9.561597 z"
       id="path423-7" />
    <path
       style="fill:none;stroke:#000000;stroke-width:0.264583px;stroke-linecap:butt;stroke-linejoin:miter;stroke-opacity:1"
       d="M 92.451836,68.992879 V 59.721442 H 102.3045 V 69.28304 Z"
       id="path423-5" />
    <path
       style="fill:none;stroke:#000000;stroke-width:0.264583px;stroke-linecap:butt;stroke-linejoin:miter;stroke-opacity:1"
       d="M 44.723044,96.432662 V 79.61805 H 71.809323 V 96.459038 79.715821 H 58.396692 v 17.274844"
       id="path607" />
    <circle
       id="path1339"
       style="fill:#999999;stroke:#000000;stroke-width:0.264583"
       cx="84.897842"
       cy="19.128365"
       r="0.047751013" />
    <circle
       id="path1341"
       style="fill:#999999;stroke:#000000;stroke-width:0.264583"
       cx="84.897842"
       cy="19.128365"
       r="0.047751013" />
    <path
       style="fill:#cccccc;stroke-width:0.264583"
       id="path1382"
       d="m 39.167186,14.673804 c -0.06989,-0.681629 -0.09461,-1.36692 -0.10781,-2.051677 0.01378,-0.801818 0.220065,-1.583386 0.373962,-2.366246 0.168288,-0.8796793 0.531662,-1.7018816 0.939533,-2.4933482 0.423415,-0.7968686 1.002966,-1.4845136 1.63019,-2.1257321 0.284658,-0.2699914 0.255434,-0.2678451 0.578006,-0.4766587 0.09467,-0.06128 0.389224,-0.2279716 0.291746,-0.171272 -5.503344,3.2011215 -3.814466,2.12392 -2.614015,1.5569973 0.475772,-0.2225181 0.986147,-0.3381751 1.502643,-0.4149993 0.549582,-0.061562 1.103294,-0.059864 1.655493,-0.063469 0.683519,-0.00681 1.366718,0.0175 2.048528,-0.036359 0.872265,-0.1152748 1.730751,-0.313105 2.571121,-0.5710897 1.093411,-0.4160618 2.123831,-0.9734007 3.204932,-1.4215252 0.852334,-0.3722272 1.754878,-0.5488186 2.669468,-0.6766552 0.628047,-0.043661 1.20505,-0.2342616 1.765808,-0.5092547 1.407824,-0.7663656 2.782414,-1.5921753 4.161907,-2.40826534 0,0 -3.657098,1.41014924 -3.657098,1.41014924 v 0 c -1.692769,1.0219858 4.335868,-2.52049044 2.542406,-1.45125303 -0.529747,0.30313526 -1.068433,0.56930855 -1.687965,0.62033763 -0.937985,0.134258 -1.879632,0.2466868 -2.759528,0.6270778 -1.08114,0.4234128 -2.114066,0.9419124 -3.167647,1.425619 -0.818033,0.2834436 -1.658295,0.4809852 -2.511782,0.6265344 -0.666398,0.096172 -1.33713,0.061033 -2.008992,0.059756 -0.559401,-0.00146 -1.119436,-0.00357 -1.678109,0.028432 -0.535099,0.037396 -1.06866,0.130766 -1.572054,0.3214274 -1.799492,0.6976936 -3.567641,1.6544324 -4.932423,3.026247 -0.615273,0.6716988 -1.159394,1.4030674 -1.565783,2.2223013 -0.402934,0.8286634 -0.761365,1.6852034 -0.915374,2.5995434 -0.153254,0.811191 -0.353631,1.621734 -0.351007,2.452341 0.03201,0.690605 0.07037,1.38085 0.105119,2.071297 0,0 3.488725,-1.810256 3.488725,-1.810256 z" />
    <path
       style="fill:#cccccc;stroke-width:0.264583"
       id="path1384"
       d="m 51.699482,15.577361 c -0.02749,-0.868749 0.05435,-1.739001 0.196017,-2.595376 0.179385,-0.975879 0.688065,-1.804841 1.20542,-2.630831 0.513371,-0.799255 1.211369,-1.4513529 1.966143,-2.0183301 1.173562,-0.7236587 3.029661,-1.7929624 -2.515243,1.4468549 -0.08331,0.048674 0.169751,-0.091829 0.256021,-0.1350312 0.01685,-0.00845 0.525592,-0.2494502 0.53948,-0.2560333 0.600769,-0.2872737 1.207334,-0.5594718 1.796603,-0.8700653 0.7399,-0.3822454 1.530768,-0.649341 2.315356,-0.9223373 0.718089,-0.2356802 1.421191,-0.5040931 2.106012,-0.8237177 2.318117,-0.9740157 3.934147,-2.1198115 5.510667,-3.8509395 0.118324,-0.1324242 0.236651,-0.2648484 0.354976,-0.3972725 0,0 -3.575347,1.5027181 -3.575347,1.5027181 v 0 c -0.117803,0.1295495 -0.235606,0.259099 -0.353412,0.3886486 -0.372541,0.3869425 -0.746283,0.7725245 -1.156755,1.1201905 -0.11157,0.094498 -0.473128,0.3409854 -0.34444,0.2715831 1.995927,-1.0764115 4.059851,-2.3654644 2.609924,-1.4643891 -0.669597,0.3347694 -1.351936,0.6282799 -2.068346,0.8493715 -0.792038,0.2825218 -1.592149,0.545506 -2.362703,0.8845137 -0.579723,0.3130556 -1.167129,0.6032008 -1.770499,0.8683575 -1.706551,0.8472781 -3.440998,1.6824425 -4.962961,2.8398324 -0.730562,0.6177237 -1.403054,1.3042537 -1.8932,2.1335037 -0.525541,0.867631 -0.995746,1.755416 -1.148466,2.773925 -0.132159,0.883293 -0.187171,1.775471 -0.205425,2.668253 0,0 3.500178,-1.783429 3.500178,-1.783429 z" />
    <path
       style="fill:#cccccc;stroke-width:0.264583"
       id="path1661"
       d="m 74.423086,15.40448 c -0.189798,-0.770662 -0.297381,-1.558066 -0.368276,-2.347599 -0.102692,-0.833185 -0.0118,-1.644555 0.15384,-2.4622 0.31579,-1.3543482 0.905782,-2.5995628 1.613532,-3.7869456 0.628213,-0.8751117 1.30434,-1.7271208 2.14965,-2.4019152 1.428993,-0.7828394 -0.581287,0.3148769 -2.774347,1.6324558 -0.08731,0.052457 0.185309,-0.085362 0.281445,-0.1190275 0.307959,-0.1078445 0.627449,-0.1386351 0.949508,-0.1710796 0.665662,-0.043105 1.333129,-0.032185 1.999662,-0.024299 0,0 3.173812,-2.3021417 3.173812,-2.3021417 v 0 c -0.675833,-0.00254 -1.351888,-0.00902 -2.027576,0.00732 -1.992955,0.077675 -3.666355,1.0656824 -5.222219,2.4458321 -0.790196,0.7423745 -1.466344,1.599265 -2.060257,2.5049316 -0.68535,1.2297082 -1.236395,2.5177131 -1.551459,3.8959601 -0.172775,0.8605 -0.282511,1.715064 -0.150124,2.590611 0.08986,0.799829 0.232312,1.591179 0.364117,2.384856 0,0 3.468692,-1.846761 3.468692,-1.846761 z" />
    <path
       style="fill:#cccccc;stroke-width:0.264583"
       id="path1663"
       d="m 86.24359,17.207982 c -0.05497,-0.687928 -0.07058,-1.378316 -0.07802,-2.068162 -0.004,-0.590512 -0.01191,-1.180956 -0.0105,-1.771489 0.01728,-0.479194 -0.01969,-0.961375 0.02692,-1.439038 0.145331,-0.626458 0.530781,-1.193425 0.890627,-1.717547 0.576374,-0.8823415 1.23171,-1.7088897 1.990241,-2.4402772 1.130671,-1.1759009 5.187408,-3.3895648 -0.650914,0.01293 0.687056,-0.3748823 1.433639,-0.5987624 2.20445,-0.7119707 0.481256,-0.06483 0.967454,-0.040995 1.451009,-0.065678 1.781135,-0.2619494 3.387257,-1.35318 4.74772,-2.4997315 0.761884,-0.6815341 1.542026,-1.3417253 2.344677,-1.9746755 0,0 -3.612311,1.4502579 -3.612311,1.4502579 v 0 c -0.79564,0.6497176 -1.561751,1.3349252 -2.370395,1.968358 -1.293265,0.8345385 -0.237294,0.1464096 2.870946,-1.624816 0.0678,-0.038632 -0.130429,0.086114 -0.19935,0.1226958 -0.195109,0.10356 -0.407829,0.1762421 -0.625062,0.2142913 -0.484653,0.078321 -0.975289,0.030078 -1.463924,0.066106 -0.806942,0.081551 -1.592953,0.2715871 -2.329892,0.6199322 -2.089438,1.2032104 -4.236828,2.2032568 -5.949677,3.9073282 -0.736232,0.7703385 -1.382564,1.6185865 -1.963031,2.5122875 -0.377928,0.591134 -0.793409,1.206168 -0.851673,1.925014 -0.01431,0.483843 0.0029,0.968198 0.0013,1.452191 0.0024,0.593267 -0.0066,1.186664 0.01267,1.779744 0.02318,0.694914 0.05091,1.389679 0.07143,2.084662 0,0 3.492627,-1.802414 3.492627,-1.802414 z" />
  </g>
</svg>
